<?xml version="1.0" encoding="UTF-8" standalone="no"?>
<!-- Created with Inkscape (http://www.inkscape.org/) -->

<svg
   version="1.1"
   id="svg1"
   width="156.66618"
   height="101.9915"
   viewBox="0 0 156.66618 101.9915"
   xmlns:xlink="http://www.w3.org/1999/xlink"
   xmlns="http://www.w3.org/2000/svg"
   xmlns:svg="http://www.w3.org/2000/svg">
  <defs
     id="defs1" />
  <g
     id="g1"
     transform="translate(-17.38196,-8.508504)">
    <path
       style="fill:#000000"
       d="M 84.636243,110.14256 C 84.496799,109.91693 83.32737,104.45298 82.037511,98.000437 80.747652,91.547896 79.249902,85.139371 78.709176,83.759272 77.56218,80.831779 75.680121,78.647497 73.500301,77.713951 71.367779,76.80066 55.608363,75.389332 46.690255,75.312988 c -6.851332,-0.05865 -7.430359,0.0093 -8.410633,0.986533 -1.711211,1.705964 -2.065734,4.397025 -1.200174,9.110129 1.212143,6.600305 2.75043,23.25861 2.198729,23.81031 C 38.329037,110.1691 37.930276,108.6839 37.33969,102 37.011655,98.2875 36.618069,94.51875 36.465054,93.625 L 36.186846,92 27.367492,91.992344 C 18.778261,91.984887 16.807939,91.697666 17.513588,90.555902 17.745589,90.180516 20.854388,90 27.087172,90 h 9.230017 L 36.009138,88.625 C 35.839709,87.86875 35.499177,86.4625 35.2524,85.5 34.595576,82.938203 34.69967,79.200523 35.479129,77.358941 36.60458,74.699902 37.958337,73.859774 41.634014,73.53928 L 44.951712,73.25 45.150289,70 C 45.6887,61.188114 48.583841,55.846446 55.04712,51.739894 58.109786,49.793978 63.764331,47.5 65.498253,47.5 c 0.973826,0 1.509984,-0.448007 2.243931,-1.875 0.530403,-1.03125 1.655085,-2.53116 2.499293,-3.333133 L 71.7764,40.833734 70.330612,38.291867 c -2.422225,-4.258561 -3.163959,-7.710509 -2.94977,-13.727903 0.238176,-6.691283 1.410013,-9.533983 4.594994,-11.146761 1.139765,-0.577143 2.910378,-1.801407 3.934695,-2.720587 2.327342,-2.0884615 3.349762,-2.3434293 8.514552,-2.1233313 3.458496,0.1473841 4.697937,0.4481603 7.467416,1.8121233 3.654567,1.799868 8.040837,5.458805 9.176421,7.654783 1.0237,1.979609 0.92548,6.710292 -0.19052,9.176947 C 100.37254,28.335212 99.597028,31.5 99.155043,34.25 97.539097,44.304307 94.96445,49.5 91.598137,49.5 c -0.913304,0 -1.3,0.264844 -1.3,0.890357 0,0.612929 1.207423,1.485466 3.875,2.800248 2.13125,1.05044 5.214102,2.819973 6.850783,3.932296 1.63668,1.112323 3.0433,1.820961 3.12582,1.574752 0.0825,-0.246209 0.54342,-1.235153 1.02422,-2.197653 l 0.87418,-1.75 19.25,-0.126726 c 10.5875,-0.0697 20.6,0.0428 22.25,0.25 2.98553,0.374909 3.0007,0.385168 3.14416,2.126726 0.12705,1.542304 -3.71758,21.863377 -5.60488,29.625 -0.38449,1.58125 -0.66312,2.922704 -0.61918,2.981008 0.0439,0.0583 6.7174,0.227054 14.8299,0.375 12.65823,0.230845 14.75,0.375353 14.75,1.018992 0,0.962239 -5.98195,1.148962 -20,0.624286 -9.08698,-0.340113 -10.06848,-0.296369 -10.75,0.479114 -0.84633,0.963011 -17.65196,8.6297 -20.7383,9.46077 -1.10328,0.29708 -2.87643,1.32656 -3.94033,2.28773 -3.59617,3.24892 -8.11032,4.45578 -11.66382,3.11833 -1.81816,-0.68431 -4.93228,-3.70568 -6.28234,-6.09523 C 99.67871,99.11454 99.466901,99 97.206066,99 h -2.407929 l -0.0068,4.625 c -0.0078,5.26454 -0.312644,6.875 -1.301489,6.875 -0.860607,0 -0.881543,-2.01712 -0.141731,-13.655232 0.529051,-8.322578 0.508389,-8.783349 -0.543624,-12.123083 -1.531619,-4.862299 -1.844734,-10.634381 -0.798231,-14.714868 0.892301,-3.479226 1.902585,-5.388807 3.0926,-5.845458 1.276504,-0.489841 1.266786,0.11617 -0.04238,2.643012 -2.53756,4.897781 -2.698764,11.385359 -0.448832,18.063044 1.334122,3.959609 8.21567,16.624415 10.00564,18.414385 3.51667,3.51667 7.94435,3.37863 12.50361,-0.38981 1.33719,-1.10525 2.83863,-2.29508 3.33653,-2.64405 0.61516,-0.431156 0.98241,-1.493927 1.14597,-3.316219 0.22867,-2.54769 0.14594,-2.786061 -1.65527,-4.769377 -1.57941,-1.739088 -2.07753,-2.01542 -2.98338,-1.655017 -0.99026,0.393985 -1.03862,0.591638 -0.54124,2.21223 0.30039,0.978775 0.40141,1.924345 0.22449,2.101267 -0.64999,0.649989 -1.66314,-0.84614 -2.31863,-3.423944 -0.37019,-1.455784 -1.18877,-3.77188 -1.81907,-5.14688 -0.63031,-1.375 -2.29188,-6.120736 -3.6924,-10.54608 -3.18559,-10.065785 -5.28659,-14.530073 -7.8216,-16.619646 -2.337324,-1.926613 -12.710867,-7.118879 -17.194163,-8.606185 -4.066538,-1.349048 -8.880081,-1.811162 -15,-1.440043 -5.415837,0.328422 -8.760666,1.437973 -13.42716,4.454074 -5.148147,3.327407 -7.93816,8.477826 -8.438851,15.578282 l -0.269397,3.820402 1.442704,0.292943 c 0.793487,0.161118 6.055204,0.649697 11.692704,1.08573 5.6375,0.436033 11.477431,1.135988 12.977625,1.555456 3.479975,0.973034 6.005475,3.44803 7.432659,7.284026 0.905814,2.434652 5.273142,22.235121 5.69855,25.835921 0.137672,1.16531 -0.764951,2.01604 -1.270728,1.19768 z M 127.56225,97.844284 c 1.91724,-0.910644 5.81761,-2.644925 8.66748,-3.853958 2.84987,-1.209034 5.48295,-2.658173 5.85127,-3.22031 1.01611,-1.550779 7.67514,-33.478686 7.102,-34.051822 -0.1335,-0.133498 -9.68046,-0.385526 -21.21546,-0.560062 l -20.97274,-0.317337 -0.84833,2.221319 c -0.46658,1.221725 -0.84833,2.40232 -0.84833,2.623543 0,0.221224 0.99475,2.917331 2.21056,5.991349 1.2158,3.074018 2.90333,7.947995 3.75006,10.831059 0.84673,2.883064 1.90054,6.062148 2.34179,7.064631 l 0.80229,1.822696 3.72535,-1.697696 C 120.17713,83.763963 121.92264,83 122.00709,83 c 0.0845,0 1.00292,0.675 2.04105,1.5 l 1.8875,1.5 7.30625,-2.78e-4 7.30625,-2.79e-4 0.92847,-4.624721 c 0.51066,-2.543597 1.65118,-8.470185 2.53447,-13.170195 l 1.606,-8.545472 -18.98385,-0.320581 c -10.44113,-0.176319 -19.08542,-0.422137 -19.20954,-0.546262 -0.12413,-0.124124 -0.0572,-0.498377 0.14884,-0.831671 0.28912,-0.467814 4.77539,-0.524268 19.67506,-0.247589 10.6153,0.197121 19.48897,0.542016 19.71926,0.766433 0.36177,0.352551 -4.40494,27.628084 -5.00616,28.645615 -0.12186,0.20625 -3.35829,0.375 -7.19206,0.375 -3.83377,0 -6.97049,0.191726 -6.97049,0.426058 0,0.234333 0.51352,1.190583 1.14115,2.125 1.28053,1.906455 3.25877,2.439076 5.20013,1.40009 0.84865,-0.454185 1.33114,-0.478724 1.72227,-0.08759 0.93338,0.933376 -1.92647,2.392272 -4.49468,2.292877 -1.59674,-0.0618 -3.05235,0.325631 -5.09221,1.355353 -2.37973,1.201283 -2.89366,1.696049 -3.07991,2.96505 -0.28271,1.926198 0.0545,1.915964 4.36736,-0.13255 z M 98.798137,97.25861 c 0,-0.132764 -0.766087,-1.623599 -1.702415,-3.312967 l -1.702415,-3.071578 -0.172585,3.106241 c -0.09492,1.708433 -0.07883,3.199269 0.03575,3.312968 0.293066,0.290807 3.541665,0.259011 3.541665,-0.03466 z m 27.056923,-3.850681 c 1.0687,-0.600638 1.94308,-1.370647 1.94308,-1.71113 0,-0.872434 -2.98073,-4.654313 -4.63436,-5.879959 l -1.38436,-1.026069 -3.47782,1.729614 c -2.7665,1.375861 -3.38243,1.882156 -3.01146,2.475435 0.37141,0.593979 0.59275,0.619428 1.08718,0.125 0.34145,-0.341451 0.99503,-0.62082 1.4524,-0.62082 0.88206,0 5.46842,4.594884 5.46842,5.47858 0,0.742588 0.36545,0.661028 2.55692,-0.570651 z M 87.600531,48.101318 c -0.417089,-0.80656 -1.575844,-1.854403 -2.575012,-2.328539 -0.999168,-0.474136 -2.220887,-1.266284 -2.714931,-1.760328 -0.966796,-0.966796 -8.035198,-1.890007 -9.911369,-1.294533 -0.544124,0.172698 -1.558494,1.174082 -2.254156,2.225299 l -1.26484,1.911302 5.362955,0.28292 c 3.996149,0.210815 6.43872,0.643501 9.583956,1.69774 2.321552,0.778152 4.290919,1.261324 4.376371,1.073717 0.08545,-0.187608 -0.185886,-1.001018 -0.602974,-1.807578 z m 5.648654,-1.386854 c 1.557206,-1.310303 2.748477,-4.478374 4.026376,-10.707766 0.441954,-2.154397 0.428448,-2.788074 -0.06292,-2.951862 -0.344123,-0.114708 -1.414364,-1.087104 -2.378314,-2.160881 -1.528158,-1.702268 -1.798313,-1.836513 -2.109272,-1.048138 -0.616765,1.563687 -0.45654,5.615417 0.293002,7.409322 0.828297,1.982395 0.177838,2.856787 -1.142905,1.536371 -0.601723,-0.601575 -0.874114,-1.95703 -0.999896,-4.97562 -0.161981,-3.887307 -0.0906,-4.240737 1.132552,-5.607348 L 93.313241,26.75 95.314217,29 c 1.658531,1.864936 2.088478,2.121645 2.512263,1.5 0.281207,-0.4125 0.384335,-1.802051 0.229173,-3.087891 -0.285452,-2.365562 0.441516,-3.778207 1.083448,-2.105357 0.307446,0.80119 0.363807,0.793797 0.711326,-0.09331 0.647233,-1.652157 0.482223,-4.739579 -0.346645,-6.486294 -1.769875,-3.729733 -9.313905,-8.126735 -14.720965,-8.580043 -4.260719,-0.3572034 -5.554969,-0.02416 -7.872286,2.025768 -1.024317,0.906121 -2.577378,1.93347 -3.451247,2.282997 -2.223545,0.889366 -2.944971,1.85611 -3.930121,5.266544 C 67.88347,25.41954 69.047108,32.821051 72.520207,38.747447 73.790494,40.915028 73.929691,41 76.21025,41 c 1.303477,0 3.600242,0.323899 5.103923,0.719776 2.644425,0.696202 2.761819,0.683921 3.584484,-0.375 0.467786,-0.602127 1.232431,-2.501026 1.69921,-4.219776 0.971086,-3.575678 1.70027,-4.051262 1.70027,-1.108941 0,2.171546 -1.059622,5.168588 -2.319644,6.560896 -0.719265,0.794779 -0.608239,1.038947 1.39407,3.065839 2.560556,2.591994 3.800987,2.818201 5.876622,1.07167 z"
       id="path1" />
  </g>
</svg>
