<?xml version="1.0" encoding="UTF-8" standalone="no"?>
<!-- Created with Inkscape (http://www.inkscape.org/) -->

<svg
   version="1.1"
   id="svg1"
   width="765.86499"
   height="733.77289"
   viewBox="0 0 765.86499 733.77289"
   xmlns="http://www.w3.org/2000/svg"
   xmlns:svg="http://www.w3.org/2000/svg">
  <defs
     id="defs1" />
  <g
     id="g1"
     transform="translate(-127.07365,-128.04604)">
    <path
       style="fill:#000000"
       d="m 127.93726,621.26428 c 0.47952,-1.18913 1.9135,-2.45492 3.18661,-2.81285 1.27312,-0.35794 3.21476,-1.05234 4.31476,-1.54312 4.74408,-2.11663 10.43756,-4.34279 16.5,-6.45153 5.86328,-2.03946 30.88507,-11.55372 71,-26.99697 7.975,-3.07017 18.775,-7.19048 24,-9.15623 5.225,-1.96575 11.8748,-4.6548 14.77734,-5.97566 2.90253,-1.32087 5.92669,-2.40158 6.72036,-2.40158 0.79367,0 3.81887,-1.06064 6.72266,-2.35697 5.50596,-2.458 9.6179,-4.05693 26.27964,-10.21888 5.5,-2.03404 12.76241,-4.97194 16.13868,-6.52866 3.37628,-1.55671 10.57628,-4.37259 16,-6.25749 5.42373,-1.8849 13.23632,-4.79099 17.36132,-6.45797 4.125,-1.66698 8.74175,-3.33928 10.25945,-3.71623 1.5177,-0.37695 3.00675,-1.08551 3.30902,-1.57458 0.30226,-0.48907 1.35387,-0.88922 2.33691,-0.88922 0.98304,0 3.27683,-0.74306 5.09732,-1.65123 3.61678,-1.80429 14.1726,-5.80669 20.4973,-7.77186 2.2,-0.68357 6.7,-2.49738 10,-4.0307 3.3,-1.53331 7.125,-3.1543 8.5,-3.6022 1.375,-0.4479 6.325,-2.18005 11,-3.84922 l 8.5,-3.03486 2.30448,2.58913 c 1.58091,1.7762 2.20887,3.55922 2,5.67878 -0.26534,2.69244 -0.9473,3.3348 -5.30448,4.9965 -7.29211,2.78099 -13.71577,5.25704 -16,6.16731 -1.1,0.43835 -7.175,2.8083 -13.5,5.26656 -6.325,2.45826 -11.95,4.77445 -12.5,5.1471 -0.55,0.37265 -2.8,1.26153 -5,1.97528 -4.04059,1.31091 -22.04228,8.01954 -28.5,10.621 -2.99646,1.20711 -43.44709,16.47499 -57,21.51435 -2.475,0.92028 -5.85,2.23785 -7.5,2.92794 -1.65,0.69009 -3.45,1.3346 -4,1.43224 -1.68387,0.29894 -12.87557,4.91558 -15,6.18759 -1.1,0.65863 -5.3359,2.18648 -9.41311,3.39523 -4.07721,1.20874 -10.15221,3.44252 -13.5,4.96395 -5.5284,2.51243 -9.47418,4.05279 -26.58689,10.37905 -3.025,1.11829 -9.1,3.47801 -13.5,5.24382 -4.4,1.76581 -9.35,3.68366 -11,4.26189 -4.82906,1.69232 -29.71003,11.31008 -33.15113,12.81461 -1.73312,0.75775 -3.84406,1.37774 -4.69098,1.37774 -0.84692,0 -1.80767,0.43334 -2.13501,0.96297 -0.32733,0.52964 -2.04139,1.39623 -3.80901,1.92577 -1.76763,0.52953 -6.523,2.34619 -10.56748,4.03702 -8.67401,3.62624 -10.05807,3.73682 -12.95783,1.03528 -2.31428,-2.15608 -2.61574,-4.08733 -1.18993,-7.6231 z m 7.75137,-317.60504 c 4.35781,-3.9272 9.34548,-2.54551 29.25,8.10291 9.12962,4.88411 60.58732,29.89958 63.13072,30.69014 1.3031,0.40504 3.49428,1.50802 4.86928,2.45107 2.78427,1.90959 11.62768,6.50269 20,10.38762 3.025,1.40366 7.525,3.75413 10,5.22326 2.475,1.46913 7.80992,4.46839 11.85538,6.66503 17.16158,9.3185 25.49164,15.14208 26.34901,18.42066 0.70634,2.70105 -2.55776,8.32641 -4.83138,8.32641 -0.91102,0 -5.53013,-2.42082 -10.2647,-5.3796 -4.73457,-2.95877 -11.08331,-6.72251 -14.10831,-8.36387 -13.70774,-7.43776 -21.43458,-11.52834 -34,-17.99958 -7.425,-3.8239 -14.85,-7.67918 -16.5,-8.56729 -1.65,-0.88811 -12,-5.94867 -23,-11.24569 -11,-5.29702 -20.9,-10.12506 -22,-10.72898 -1.1,-0.60391 -10.37722,-5.27384 -20.61605,-10.3776 -20.99558,-10.46571 -24.57885,-13.59881 -20.13395,-17.60449 z m 39.88486,153.33968 c 5.2471,-4.12737 18.68164,-1.64404 20.02322,3.70123 1.95034,7.77076 -10.14523,14.12836 -18.58064,9.76624 -4.80855,-2.4866 -5.63181,-10.17222 -1.44258,-13.46747 z m 44.51713,339.42742 c 0.60015,-1.1 2.49897,-3.35863 4.21959,-5.01917 2.64946,-2.55693 16.37051,-18.22377 23.12622,-26.40574 1.10121,-1.33369 4.0272,-4.7472 6.5022,-7.58556 2.475,-2.83835 7.18094,-8.27215 10.45764,-12.07509 3.2767,-3.80294 9.22413,-10.28944 13.21651,-14.41444 3.99239,-4.125 8.06145,-8.48177 9.04237,-9.68171 6.86284,-8.39521 10.97682,-13.13827 19.79185,-22.81829 5.50938,-6.05 12.00622,-13.475 14.43741,-16.5 2.4312,-3.025 4.90743,-5.95 5.50275,-6.5 0.59532,-0.55 2.6393,-3.025 4.54219,-5.5 3.55714,-4.62661 15.75633,-18.64495 23.93133,-27.5 2.53881,-2.75 6.9703,-7.925 9.84776,-11.5 2.87745,-3.575 6.05536,-7.4 7.06202,-8.5 1.00666,-1.1 3.59382,-4.23157 5.74923,-6.95905 2.15542,-2.72748 4.59394,-5.73273 5.41894,-6.67833 0.825,-0.9456 1.95816,-2.31402 2.51813,-3.04094 0.55998,-0.72693 4.3964,-5.14668 8.5254,-9.82168 6.55202,-7.41844 12.67275,-14.84348 21.95647,-26.63531 1.375,-1.74647 7.18438,-9.40549 12.90972,-17.02005 14.65363,-19.4889 19.14374,-23.41541 24.46357,-21.39282 2.90672,1.10514 4.24994,5.5562 2.42399,8.03249 -0.7135,0.96763 -4.78403,5.97951 -9.0456,11.13751 -11.64171,14.09054 -15.9627,19.55955 -18.84805,23.85574 -1.43858,2.142 -5.26791,7.01623 -8.50962,10.83163 -3.2417,3.81541 -8.90992,10.70668 -12.59603,15.31395 -10.82457,13.52965 -23.71485,29.07069 -27.68393,33.37686 -2.02779,2.2 -5.95389,6.7 -8.72468,10 -2.77078,3.3 -6.45368,7.575 -8.18421,9.5 -8.95441,9.96067 -21.33648,24.32691 -26.20897,30.40883 -3.0229,3.77324 -10.89619,12.84077 -17.49619,20.15006 -6.6,7.30929 -13.29531,14.7862 -14.87846,16.61536 -1.58315,1.82916 -6.33765,7.15075 -10.56555,11.82575 -4.22791,4.675 -8.69988,9.85 -9.93772,11.5 -2.6473,3.52876 -14.2281,16.54673 -18.82686,21.16326 -1.76473,1.77154 -9.37831,10.33453 -16.91906,19.02886 -19.74024,22.76009 -22.16806,24.88859 -23.73398,20.80788 -0.31658,-0.825 -1.21658,-1.5 -2,-1.5 -0.78341,0 -1.69754,-0.7118 -2.03138,-1.58179 -0.79858,-2.08107 -0.74651,-2.55102 0.545,-4.91821 z m 35.14978,-602.5 c 4.0109,-4.85907 8.23899,-4.09291 13.79641,2.5 4.50725,5.34706 17.25155,19.87167 17.98728,20.5 0.32201,0.275 0.99701,1.23911 1.5,2.14247 0.503,0.90336 3.98666,5.05273 7.74147,9.22084 3.75482,4.1681 10.00449,11.52899 13.88817,16.35753 3.88368,4.82854 7.38078,9.00416 7.77134,9.27916 0.6717,0.47295 16.08377,18.43566 23.8998,27.85511 5.56288,6.70409 16.38536,19.41355 18.43126,21.64489 1.00858,1.1 5.02397,5.9375 8.9231,10.75 3.89912,4.8125 7.46508,8.75 7.92436,8.75 0.45927,0 0.83504,0.39343 0.83504,0.8743 0,0.48086 1.11095,2.16836 2.46877,3.75 1.35782,1.58163 5.50876,6.4757 9.22432,10.8757 3.71555,4.4 6.99829,8.225 7.29497,8.5 0.29669,0.275 2.55645,2.975 5.02168,6 2.46524,3.025 4.97229,5.95 5.57123,6.5 0.59894,0.55 2.85074,3.22683 5.00401,5.94851 4.21823,5.33177 33.18574,39.30101 41.71356,48.91613 6.41167,7.22915 8.26715,11.70351 6.42152,15.48497 -1.0928,2.23901 -1.90097,2.62993 -5.20677,2.5186 -2.83473,-0.0955 -4.47817,-0.81074 -5.96324,-2.59533 -8.56167,-10.28847 -12.1454,-14.53308 -20.06443,-23.76454 -4.95791,-5.77959 -11.03291,-12.99652 -13.5,-16.03764 -7.81674,-9.63547 -13.30895,-16.09441 -19.48562,-22.91544 -3.3,-3.64426 -7.8,-8.85049 -10,-11.56939 -6.20504,-7.66861 -14.81596,-17.9318 -15.50982,-18.48587 -0.34439,-0.275 -2.40102,-2.76749 -4.5703,-5.53887 -2.16927,-2.77138 -7.87618,-9.57975 -12.68201,-15.12972 -4.80583,-5.54997 -8.73787,-10.5206 -8.73787,-11.04583 0,-0.52524 -1.2375,-2.07969 -2.75,-3.45432 -4.18187,-3.80069 -19.59783,-21.5598 -30.25,-34.84784 -5.31777,-6.63364 -14.86885,-17.89046 -19.95235,-23.51566 -8.72469,-9.65438 -16.41159,-18.6133 -23.81667,-27.75784 -7.35045,-9.07707 -8.12781,-9.99959 -12.18456,-14.45992 -2.31078,-2.54066 -2.56764,-5.0415 -0.74465,-7.25 z m 13.76379,273.3518 c 1.3308,-3.59748 1.39824,-3.5993 29.43444,-0.79443 2.2,0.2201 7.825,0.62586 12.5,0.90169 19.93368,1.17611 25.61273,1.57389 27.5,1.92621 1.1,0.20534 10.52498,0.94888 20.94441,1.65229 17.86471,1.20605 19.07051,1.415 21.15694,3.6663 2.61459,2.82118 2.50739,7.01224 -0.23056,9.01428 -1.26645,0.92605 -3.47156,1.19001 -6.86807,0.82213 -2.7515,-0.29802 -8.51172,-0.75322 -12.8005,-1.01157 -4.28877,-0.25835 -8.23084,-0.73737 -8.76014,-1.0645 -0.5293,-0.32712 -4.6703,-0.77654 -9.20222,-0.99869 -8.58919,-0.42105 -18.33011,-0.98725 -32.73986,-1.90305 -4.675,-0.29712 -12.55,-0.78822 -17.5,-1.09135 -11.58059,-0.70917 -21.17008,-2.34933 -22.31203,-3.81618 -1.45364,-1.86725 -1.94664,-5.07501 -1.12241,-7.30313 z m 25.85141,157.47498 c 2.78499,-3.53274 6.80317,-4.32268 11.80596,-2.32096 5.95818,2.38399 6.76781,5.10716 3.46606,11.65797 -2.53445,5.02845 -2.92798,5.35362 -6.82326,5.63804 -5.51588,0.40275 -9.27706,-2.71321 -10.02278,-8.30339 -0.41357,-3.10028 -0.06,-4.59892 1.57402,-6.67166 z m 38.48185,138.67322 c 2.95614,-9.34723 7.12419,-15.01669 11.79392,-16.04233 4.40093,-0.96661 7.15049,1.87511 6.29978,6.51092 -0.69602,3.79289 -5.68585,14.78465 -8.75299,19.28141 -2.38602,3.49815 -6.91968,3.75858 -9.18283,0.52749 -1.83764,-2.6236 -1.87196,-4.85761 -0.15788,-10.27749 z m 19.40934,-345.5 c 0.78056,-2.26776 3.39523,-3.93268 6.23182,-3.9682 1.39699,-0.0175 11.74699,4.52088 23,10.08527 42.39918,20.96556 54.66571,26.88293 55.72748,26.88293 1.50198,0 2.01521,4.01502 0.86244,6.74693 -0.56143,1.33049 -2.34793,2.63343 -4.38016,3.19456 -3.77189,1.04147 -1.55547,1.94958 -28.24974,-11.5745 -7.425,-3.76171 -18.45,-9.23225 -24.5,-12.15675 -28.59578,-13.82285 -30.1809,-14.88414 -28.69184,-19.21024 z m 31.19184,-231 c 1.1,-1.1 2.62838,-2 3.39641,-2 2.17531,0 7.33671,6.48605 8.09752,10.17572 1.33731,6.4855 6.51046,23.60391 7.99092,26.44265 2.23257,4.28089 1.88186,8.10583 -1.00822,10.99591 -4.25311,4.25311 -5.80277,3.11293 -10.34885,-7.61428 -1.04888,-2.475 -2.67881,-7.2 -3.62207,-10.5 -0.94326,-3.3 -2.79292,-8.93614 -4.11036,-12.52476 -2.93879,-8.00504 -3.05265,-12.31794 -0.39535,-14.97524 z m 31.52164,574 c 4.20011,-15.55643 5.32196,-19.47901 6.315,-22.08058 0.54177,-1.41932 1.73084,-5.69432 2.64238,-9.5 0.91154,-3.80568 2.06489,-8.04442 2.563,-9.41942 0.49811,-1.375 1.1121,-3.625 1.36442,-5 0.60429,-3.29298 2.97899,-13.03771 7.79812,-32 2.16657,-8.525 4.09817,-16.175 4.29244,-17 1.44717,-6.14536 6.27562,-25.12965 10.17357,-40 0.79294,-3.025 2.06788,-7.525 2.83319,-10 0.76531,-2.475 2.31093,-8.9602 3.4347,-14.41155 2.44535,-11.86225 3.96077,-14.58845 8.10934,-14.58845 5.04141,0 6.18889,5.29595 3.8989,17.99453 -0.64523,3.57801 -1.58158,7.40547 -2.08076,8.50547 -0.84026,1.85157 -1.6532,4.83423 -2.31674,8.5 -0.14933,0.825 -0.50994,2.175 -0.80134,3 -0.29141,0.825 -1.08954,4.2 -1.77362,7.5 -0.68408,3.3 -1.81397,7.8 -2.51086,10 -0.6969,2.2 -1.49301,5.43722 -1.76914,7.19383 -0.27613,1.75661 -0.96575,4.68161 -1.53247,6.5 -0.56673,1.81839 -1.54535,5.91044 -2.17472,9.09343 -0.62937,3.18299 -1.78116,7.00799 -2.55952,8.5 -0.77837,1.49201 -1.41798,3.49461 -1.42137,4.45024 -0.003,0.95562 -1.17116,6.13062 -2.59505,11.5 -1.42389,5.36937 -3.22154,12.6875 -3.99477,16.2625 -0.77324,3.575 -1.67369,7.175 -2.00101,8 -0.7382,1.86062 -3.71827,12.47477 -7.0191,25 -3.56594,13.5312 -3.18971,12.01504 -5.84082,23.53792 -2.08747,9.07303 -4.78792,13.63984 -7.81106,13.20952 -6.90297,-0.98258 -8.0583,-4.24492 -5.22271,-14.74744 z m 7.72836,-455.68765 c 3.14554,-2.84676 6.31679,-3.3913 10.22937,-1.75652 3.57539,1.49389 7.52063,6.17022 7.52063,8.91428 0,4.74547 -5.26975,8.52989 -11.87776,8.52989 -3.10543,0 -4.43132,-0.57748 -6.04966,-2.63486 -2.91401,-3.70456 -2.82386,-10.33659 0.17742,-13.05279 z M 471.96666,133.9752 c 1.40777,-6.06053 5.98826,-7.74202 10.34834,-3.79886 2.47945,2.24236 2.48995,2.3298 3.09297,25.75 0.33279,12.925 0.77598,24.85 0.98486,26.5 0.20889,1.65 0.66197,10.425 1.00687,19.5 0.85788,22.57313 1.45416,36.11444 1.98154,45 0.24482,4.125 0.70853,14.25 1.03046,22.5 0.32193,8.25 0.8063,18.15 1.07638,22 0.27009,3.85 0.69784,12.175 0.95057,18.5 0.25272,6.325 0.6833,16.9 0.95684,23.5 0.27353,6.6 0.75144,18.525 1.06202,26.5 0.31058,7.975 0.7502,18.90819 0.97692,24.29599 0.36651,8.70957 0.19552,10.01269 -1.54179,11.75 -2.92397,2.92397 -7.17608,2.54095 -9.16471,-0.82554 -1.31616,-2.22808 -1.76965,-6.94013 -2.28569,-23.75 -0.9927,-32.33659 -1.29496,-39.31321 -1.74054,-40.17443 -0.22652,-0.43781 -0.4705,-9.12102 -0.54218,-19.29602 -0.0717,-10.175 -0.3923,-20.525 -0.71249,-23 -0.32019,-2.475 -0.78154,-8.775 -1.02522,-14 -0.24368,-5.225 -0.6603,-11.75 -0.92582,-14.5 -0.68622,-7.1072 -1.76432,-28.23842 -2.04077,-40 -0.12928,-5.5 -0.5649,-14.05 -0.96806,-19 -0.86448,-10.61433 -1.29143,-19.79313 -2.02265,-43.484 -0.2968,-9.6162 -0.71061,-18.1662 -0.91957,-19 -0.20896,-0.8338 -0.0192,-3.06902 0.42172,-4.96714 z m 30.48278,490.20114 c 1.11995,-1.57237 2.6191,-2.25 4.9778,-2.25 5.34575,0 7.48812,3.89726 8.09049,14.7177 0.46751,8.39788 2.03462,23.99068 2.94295,29.2823 2.46816,14.37876 1.2671,20.25584 -3.9363,19.26114 -3.94039,-0.75325 -7.58575,-4.70023 -7.58575,-8.21339 0,-3.75637 0.057,-3.3622 -1.03871,-7.18274 -0.50035,-1.74459 -1.6044,-10.86541 -2.45345,-20.2685 -0.84905,-9.40308 -1.78131,-18.44651 -2.07168,-20.09651 -0.33265,-1.89026 0.0649,-3.8323 1.07465,-5.25 z m 15.37157,115.86762 c 3.33246,-3.33246 9.75784,-2.09996 9.81345,1.88238 0.0115,0.825 0.28951,3.525 0.61775,6 0.32825,2.475 0.87279,8.55 1.2101,13.5 0.33731,4.95 0.79104,9.675 1.00829,10.5 0.21725,0.825 0.65692,4.2 0.97704,7.5 0.32013,3.3 0.96227,8.475 1.42699,11.5 0.46472,3.025 0.82809,6.4 0.80751,7.5 -0.0206,1.1 0.6677,6.725 1.52953,12.5 0.86183,5.775 1.8615,14.30973 2.22149,18.96607 0.35998,4.65634 0.8544,8.78949 1.0987,9.18477 0.24429,0.39529 0.72477,4.80439 1.06772,9.79801 0.54159,7.88606 0.38734,9.34031 -1.17369,11.06523 -2.39748,2.64918 -4.65249,2.50339 -7.45724,-0.48212 -2.22504,-2.36845 -3.34437,-6.60144 -4.63599,-17.53196 -0.29246,-2.475 -0.69249,-5.85 -0.88895,-7.5 -0.19646,-1.65 -0.6283,-6.15 -0.95965,-10 -0.33134,-3.85 -1.0389,-10.375 -1.57235,-14.5 -0.53345,-4.125 -1.21243,-9.975 -1.50884,-13 -0.29642,-3.025 -0.72157,-6.85 -0.94478,-8.5 -0.22322,-1.65 -0.67862,-6.375 -1.01201,-10.5 -0.33339,-4.125 -0.88303,-8.625 -1.22144,-10 -0.3384,-1.375 -0.70665,-4.525 -0.81833,-7 -0.11168,-2.475 -0.54053,-7.70957 -0.95299,-11.63238 -0.68188,-6.48521 -0.55779,-7.32452 1.36769,-9.25 z m 6.5275,-177.74554 c 2.00857,-2.78894 6.23964,-3.57971 8.27314,-1.54621 2.50179,2.50179 19.2673,38.10774 25.97944,55.17413 1.40603,3.575 3.389,8.36893 4.40659,10.65318 7.04336,15.81061 7.7086,22.12411 2.57752,24.46199 -4.5976,2.09481 -6.84271,-0.41727 -11.27452,-12.61517 -0.99914,-2.75 -2.83971,-7.025 -4.09015,-9.5 -1.25044,-2.475 -2.27541,-4.86537 -2.27771,-5.31193 -0.002,-0.44655 -1.06765,-3.14655 -2.36744,-6 -5.51139,-12.09922 -6.63675,-14.70262 -6.63675,-15.35338 0,-0.37791 -3.42026,-7.69532 -7.60057,-16.2609 -8.30637,-17.01999 -9.3218,-20.46333 -6.98955,-23.70171 z m 7.48895,-225.37208 c 2.01432,-5.775 5.96616,-16.575 8.78187,-24 2.8157,-7.425 6.00028,-16.12938 7.07683,-19.34308 1.88257,-5.61975 4.3872,-9.66103 5.98268,-9.65318 0.41789,0.002 2.22229,0.89544 4.00979,1.9853 2.51495,1.53339 3.25,2.66646 3.25,5.00983 0,1.66555 -0.39715,3.80966 -0.88255,4.7647 -0.85668,1.68553 -1.92513,4.51054 -7.65368,20.23643 -1.50263,4.125 -3.30368,8.85 -4.00233,10.5 -0.69865,1.65 -2.24303,6.375 -3.43197,10.5 -2.73906,9.50315 -5.10678,16.14866 -6.32411,17.75 -2.35054,3.092 -10.80986,-0.9575 -10.58714,-5.06809 0.065,-1.20005 1.76629,-6.90691 3.78061,-12.68191 z m 7.85117,80.96107 c 2.9808,-3.7879 3.72107,-4.91097 8.21368,-12.46107 1.63636,-2.75 3.43884,-5.675 4.00552,-6.5 0.56668,-0.825 6.6302,-10.05 13.4745,-20.5 6.84429,-10.45 12.9194,-19.54351 13.50024,-20.20779 0.58083,-0.66429 1.05606,-1.43086 1.05606,-1.70349 0,-0.27263 2.7221,-5.00172 6.04911,-10.50908 8.36544,-13.84773 14.1168,-17.52707 17.41813,-11.14299 1.79908,3.47904 1.48552,4.48477 -4.15396,13.32358 -2.37231,3.71812 -4.31328,6.92388 -4.31328,7.12391 0,0.20003 -2.8125,4.67407 -6.25,9.94232 -15.76473,24.16073 -25.2568,38.98576 -31.16437,48.67354 -9.02741,14.80396 -10.08178,16 -14.10498,16 -2.34599,0 -3.83937,-0.67406 -4.92395,-2.22251 -2.24864,-3.21039 -1.92773,-5.85031 1.1933,-9.81642 z m 18.67012,65.48006 c 1.35226,-1.84836 2.79793,-1.9359 30.25,-1.83177 38.82991,0.14728 134.9995,1.42511 144.32988,1.91773 4.125,0.2178 17.175,0.61992 29,0.8936 27.02011,0.62538 53.40102,1.44452 67,2.08038 5.775,0.27003 16.8,0.71343 24.5,0.98532 7.7,0.2719 16.475,0.70248 19.5,0.95685 3.025,0.25437 7.975,0.55025 11,0.65752 6.58657,0.23357 9,1.97199 9,6.4828 0,5.80369 -1.79115,6.57207 -13.86212,5.9467 -5.85084,-0.30312 -15.36288,-0.78818 -21.13788,-1.07793 -5.775,-0.28974 -13.875,-0.73578 -18,-0.9912 -4.125,-0.25541 -15.15,-0.67707 -24.5,-0.93701 -9.35,-0.25995 -19.025,-0.68521 -21.5,-0.94503 -2.475,-0.25982 -18.9,-0.74973 -36.5,-1.0887 -17.6,-0.33897 -37.85,-0.76884 -45,-0.95527 -7.15,-0.18642 -43.375,-0.62583 -80.5,-0.97646 -37.125,-0.35062 -68.91905,-0.857 -70.65345,-1.12528 -4.42168,-0.68395 -5.94102,-5.87169 -2.92643,-9.99225 z m 0.67523,-272.16984 c 1.66512,-4.50126 9.06773,-5.68877 14.56536,-2.33655 6.14072,3.74434 5.6906,9.7486 -0.97264,12.97421 -5.26599,2.54923 -7.80054,2.63057 -10.62664,0.34105 -2.52066,-2.04208 -4.10399,-7.90264 -2.96608,-10.97871 z m 13.0996,320.22871 c 2.61013,-4.6029 6.99785,-4.69141 12.39281,-0.25 2.17127,1.7875 4.68994,3.7 5.59704,4.25 2.19129,1.32864 19.6452,12.9852 22.80551,15.23062 1.36967,0.97316 7.44467,5.3002 13.5,9.61566 6.05533,4.31545 14.22633,9.94045 18.15779,12.5 8.3435,5.43198 9.69584,7.11889 8.41265,10.49394 -2.17344,5.71657 -9.44991,4.08157 -21.6693,-4.86902 -9.36882,-6.86258 -35.23868,-24.4712 -35.95208,-24.4712 -0.39503,0 -3.40505,-2.07237 -16.70319,-11.5 -3.10321,-2.2 -6.11335,-5.03367 -6.68919,-6.29705 -1.23743,-2.71487 -1.25258,-2.23314 0.14796,-4.70295 z m 3.57313,41.29607 c 2.01609,-1.19093 3.25647,-1.36184 4.56581,-0.62909 3.15486,1.76555 25.67392,24.69968 69.16611,70.44097 8.25,8.67664 19.34905,20.30188 24.66455,25.83387 5.3155,5.532 12.2905,12.96675 15.5,16.52166 3.2095,3.55492 10.18231,10.97992 15.49514,16.5 5.31284,5.52009 12.06284,12.67937 15,15.90951 2.93717,3.23015 11.74321,12.48688 19.56898,20.57052 20.52841,21.20485 22.48519,24.30307 18.23237,28.86793 -3.65519,3.92339 -6.08154,2.88147 -14.08172,-6.04701 -4.05863,-4.52956 -12.81206,-13.86706 -19.45207,-20.75 -6.64002,-6.88294 -14.51228,-15.21443 -17.49392,-18.51443 -2.98165,-3.3 -9.51254,-10.275 -14.5131,-15.5 -5.00056,-5.225 -12.17863,-12.875 -15.95125,-17 -3.77263,-4.125 -15.50954,-16.5 -26.08201,-27.5 -10.57248,-11 -20.15131,-21.125 -21.28629,-22.5 -2.95828,-3.58388 -3.1325,-3.76373 -11.36793,-11.73608 -4.11118,-3.97984 -9.1876,-9.15484 -11.28093,-11.5 -6.3636,-7.12913 -25.71344,-27.92778 -29.70182,-31.92573 -4.70862,-4.71991 -5.05677,-8.63505 -0.98192,-11.04212 z m 11.06653,-154.19164 c 6.96596,-5.3149 14.91539,-11.46658 17.66539,-13.6704 2.75,-2.20383 7.67985,-6.12805 10.95523,-8.72049 3.27538,-2.59245 7.10038,-5.79226 8.5,-7.11071 1.39962,-1.31844 5.91977,-4.93069 10.04477,-8.02723 4.125,-3.09654 9.525,-7.52471 12,-9.84037 2.475,-2.31566 4.81997,-4.21591 5.21104,-4.22276 0.39108,-0.007 1.51608,-0.83076 2.5,-1.83089 0.98393,-1.00013 5.60531,-4.71263 10.26973,-8.25 9.02134,-6.84153 10.5821,-8.11133 18.67731,-15.19528 2.83695,-2.48256 7.22445,-5.93543 9.75,-7.67306 2.52556,-1.73763 4.59499,-3.4752 4.59875,-3.86128 0.004,-0.38608 1.69126,-1.81859 3.75,-3.18336 3.83861,-2.54466 12.92796,-9.68599 14.73329,-11.57566 0.55543,-0.58139 2.80988,-2.3576 5.00988,-3.94714 2.2,-1.58954 4.225,-3.13886 4.5,-3.44294 0.275,-0.30407 2.975,-2.55033 6,-4.99169 3.025,-2.44136 6.175,-5.02985 7,-5.7522 11.54982,-10.11277 30.73145,-25.30897 31.94662,-25.30897 0.57936,0 1.05338,-0.39488 1.05338,-0.87752 0,-0.80725 4.87516,-5.03759 14.54649,-12.62248 2.10387,-1.65 4.52909,-3.73577 5.38937,-4.63505 0.86028,-0.89928 2.94801,-2.47428 4.63941,-3.5 1.6914,-1.02572 5.5164,-3.98123 8.5,-6.5678 5.38697,-4.67012 9.41698,-7.92688 19.87262,-16.05961 2.99633,-2.33065 6.54954,-5.25004 7.89602,-6.48754 2.62513,-2.41267 6.11438,-2.87787 9.19987,-1.22657 3.18239,1.70316 1.96193,8.26736 -2.17716,11.70982 -1.82965,1.52171 -5.641,4.79175 -8.46967,7.26675 -4.41529,3.86325 -14.3359,11.92641 -22.55072,18.3285 -10.7422,8.37177 -24.39705,19.35214 -31.3025,25.1715 -4.56854,3.85 -10.8945,9.025 -14.0577,11.5 -3.16319,2.475 -9.17908,7.43648 -13.36864,11.02551 -7.15178,6.12663 -17.06503,14.09956 -31.43715,25.28395 -3.39913,2.6452 -7.30524,5.77963 -8.68024,6.96539 -1.375,1.18576 -6.55,5.3311 -11.5,9.21188 -4.95,3.88077 -10.125,8.02351 -11.5,9.20609 -2.04096,1.75534 -24.25925,19.79248 -40,32.47258 -1.925,1.55071 -6.77614,5.51875 -10.7803,8.81787 -4.00417,3.29913 -9.62917,7.81422 -12.5,10.03354 -2.87084,2.21933 -7.4697,5.85355 -10.2197,8.07607 -6.81223,5.50554 -18.58665,14.50938 -25.75581,19.69532 -7.7304,5.59193 -10.83369,4.84217 -12.02082,-2.90425 l -0.55416,-3.61606 z m 13.12143,303.69983 c 2.73517,-4.4858 9.95679,-5.65616 14.93051,-2.41969 2.12909,1.38543 2.68806,10.58951 0.81658,13.44576 -4.00617,6.11419 -12.78412,5.23347 -16.03081,-1.60843 -2.12762,-4.48364 -2.09659,-5.51382 0.28372,-9.41764 z M 643.0956,254.86933 c 3.93634,-6.84364 7.98839,-13.79299 9.00456,-15.44299 1.01617,-1.65 2.57201,-4.575 3.45742,-6.5 0.88541,-1.925 2.50668,-4.76234 3.60284,-6.30519 1.09615,-1.54285 3.37598,-5.59285 5.0663,-9 1.69032,-3.40715 4.80619,-8.55731 6.92415,-11.44481 4.31649,-5.88483 7.55788,-6.84399 10.23106,-3.02749 2.69089,3.84178 1.87345,7.943 -3.36456,16.88047 -6.40736,10.93271 -16.88895,29.17951 -20.07008,34.93887 -10.93847,19.80376 -11.8765,20.95815 -17.03003,20.95815 -1.89673,0 -4.97863,-4.49248 -4.97863,-7.25735 0,-0.74616 3.22064,-6.95601 7.15697,-13.79966 z m 5.01554,272.5653 c 3.70388,-3.1166 5.6116,-3.13317 12.70244,-0.1103 3.09378,1.31889 13.72505,4.98534 23.62505,8.14765 37.61711,12.01588 54.21279,17.76715 55.77439,19.32875 0.61909,0.61909 2.04811,1.13211 3.17561,1.14006 1.1275,0.008 8.575,2.29509 16.55,5.08255 7.975,2.78746 16.75,5.65727 19.5,6.37735 7.36429,1.92832 8.81964,2.59587 10.72776,4.92063 3.08106,3.75381 1.41818,8.76992 -3.22776,9.73662 -1.44593,0.30086 -13.58654,-3.26523 -25,-7.34332 -3.025,-1.08085 -11.575,-3.9305 -19,-6.33256 -7.425,-2.40206 -14.85,-4.87466 -16.5,-5.49468 -9.28188,-3.48782 -40.84641,-13.96104 -42.07623,-13.96104 -0.798,0 -2.2323,-0.3975 -3.18734,-0.88333 -3.35089,-1.70461 -6.84903,-2.95607 -19.9678,-7.14349 -7.27725,-2.32284 -13.62476,-4.72957 -14.10557,-5.34827 -2.29031,-2.94715 -1.95793,-5.61973 1.00945,-8.11662 z m 8.5767,-85.62992 c 0.37947,-2.77222 2.0703,-3.86461 12.25079,-7.91489 3.025,-1.20349 7.3,-2.9797 9.5,-3.94713 11.52674,-5.06883 16.896,-7.25513 26,-10.58691 5.5,-2.01283 10.45,-4.01398 11,-4.44699 3.03299,-2.38787 9.09458,-0.73392 9.96093,2.71792 1.02798,4.09579 -1.65867,6.82199 -9.66402,9.80627 -4.0133,1.49611 -9.54691,3.74287 -12.29691,4.99281 -2.75,1.24995 -7.475,3.26877 -10.5,4.48628 -3.025,1.21752 -8.30303,3.5188 -11.72896,5.11397 -3.42593,1.59516 -6.69333,2.9003 -7.2609,2.9003 -0.56756,0 -3.01732,0.93324 -5.4439,2.07387 -7.45713,3.50526 -12.69292,1.20329 -11.81703,-5.1955 z m 44.9684,181.47606 c 0.7464,-4.06333 4.52914,-5.99454 10.79261,-5.50995 2.70842,0.20954 7.48978,4.775 7.48978,7.15158 0,2.00844 -4.26755,8.91806 -6.31012,10.21677 -5.42219,3.44753 -13.34274,-4.39768 -11.97227,-11.8584 z m 82.39496,26.533 c 1.66411,-1.66411 2.87799,-1.98837 5.71813,-1.52748 7.00789,1.13723 24.1693,14.95184 24.1693,19.45584 0,0.99552 -1.2375,2.98295 -2.75,4.41652 -3.37917,3.20283 -4.05487,2.95558 -17.03232,-6.23231 -5.70653,-4.04016 -9.75554,-7.6925 -10.69931,-9.65113 -1.92194,-3.98867 -1.92633,-3.94091 0.5942,-6.46144 z m 6.28743,-260.48743 c 3.26402,-3.26402 6.82249,-4.23221 12.6,-3.42823 5.39308,0.75049 6.78108,8.62785 2.3603,13.39546 -5.56918,6.00612 -12.06779,6.36268 -16.36632,0.89799 -2.9234,-3.7165 -2.50434,-6.95486 1.40602,-10.86522 z"
       id="path1" />
  </g>
</svg>
