<?xml version="1.0" encoding="UTF-8" standalone="no"?>
<!-- Created with Inkscape (http://www.inkscape.org/) -->

<svg
   version="1.1"
   id="svg1"
   width="733.77289"
   height="765.86499"
   viewBox="0 0 733.77289 765.86499"
   xmlns:xlink="http://www.w3.org/1999/xlink"
   xmlns="http://www.w3.org/2000/svg"
   xmlns:svg="http://www.w3.org/2000/svg">
   <defs
      id="defs1" />
   <g
      id="g1"
      transform="translate(-143.11971,-112)">
      <path
         style="fill:#000000"
         d="m 636.33794,877.00137 c -1.18913,-0.47952 -2.45492,-1.9135 -2.81285,-3.18661 -0.35794,-1.27312 -1.05234,-3.21476 -1.54312,-4.31476 -2.11663,-4.74408 -4.34279,-10.43756 -6.45153,-16.5 -2.03946,-5.86328 -11.55372,-30.88507 -26.99697,-71 -3.07017,-7.975 -7.19048,-18.775 -9.15623,-24 -1.96575,-5.225 -4.6548,-11.8748 -5.97566,-14.77734 C 582.08071,740.32013 581,737.29597 581,736.5023 c 0,-0.79367 -1.06064,-3.81887 -2.35697,-6.72266 -2.458,-5.50596 -4.05693,-9.6179 -10.21888,-26.27964 -2.03404,-5.5 -4.97194,-12.76241 -6.52866,-16.13868 -1.55671,-3.37628 -4.37259,-10.57628 -6.25749,-16 -1.8849,-5.42373 -4.79099,-13.23632 -6.45797,-17.36132 -1.66698,-4.125 -3.33928,-8.74175 -3.71623,-10.25945 -0.37695,-1.5177 -1.08551,-3.00675 -1.57458,-3.30902 C 543.40015,640.12927 543,639.07766 543,638.09462 c 0,-0.98304 -0.74306,-3.27683 -1.65123,-5.09732 -1.80429,-3.61678 -5.80669,-14.1726 -7.77186,-20.4973 -0.68357,-2.2 -2.49738,-6.7 -4.0307,-10 -1.53331,-3.3 -3.1543,-7.125 -3.6022,-8.5 -0.4479,-1.375 -2.18005,-6.325 -3.84922,-11 l -3.03486,-8.5 2.58913,-2.30448 c 1.7762,-1.58091 3.55922,-2.20887 5.67878,-2 2.69244,0.26534 3.3348,0.9473 4.9965,5.30448 2.78099,7.29211 5.25704,13.71577 6.16731,16 0.43835,1.1 2.8083,7.175 5.26656,13.5 2.45826,6.325 4.77445,11.95 5.1471,12.5 0.37265,0.55 1.26153,2.8 1.97528,5 1.31091,4.04059 8.01954,22.04228 10.621,28.5 1.20711,2.99646 16.47499,43.44709 21.51435,57 0.92028,2.475 2.23785,5.85 2.92794,7.5 0.69009,1.65 1.3346,3.45 1.43224,4 0.29894,1.68387 4.91558,12.87557 6.18759,15 0.65863,1.1 2.18648,5.3359 3.39523,9.41311 1.20874,4.07721 3.44252,10.15221 4.96395,13.5 2.51243,5.5284 4.05279,9.47418 10.37905,26.58689 1.11829,3.025 3.47801,9.1 5.24382,13.5 1.76581,4.4 3.68366,9.35 4.26189,11 1.69232,4.82906 11.31008,29.71003 12.81461,33.15113 0.75775,1.73312 1.37774,3.84406 1.37774,4.69098 0,0.84692 0.43334,1.80767 0.96297,2.13501 0.52964,0.32733 1.39623,2.04139 1.92577,3.80901 0.52953,1.76763 2.34619,6.523 4.03702,10.56748 3.62624,8.67401 3.73682,10.05807 1.03528,12.95783 -2.15608,2.31428 -4.08733,2.61574 -7.6231,1.18993 z M 318.7329,869.25 c -3.9272,-4.35781 -2.54551,-9.34548 8.10291,-29.25 4.88411,-9.12962 29.89958,-60.58732 30.69014,-63.13072 0.40504,-1.3031 1.50802,-3.49428 2.45107,-4.86928 1.90959,-2.78427 6.50269,-11.62768 10.38762,-20 1.40366,-3.025 3.75413,-7.525 5.22326,-10 1.46913,-2.475 4.46839,-7.80992 6.66503,-11.85538 9.3185,-17.16158 15.14208,-25.49164 18.42066,-26.34901 2.70105,-0.70634 8.32641,2.55776 8.32641,4.83138 0,0.91102 -2.42082,5.53013 -5.3796,10.2647 -2.95877,4.73457 -6.72251,11.08331 -8.36387,14.10831 -7.43776,13.70774 -11.52834,21.43458 -17.99958,34 -3.8239,7.425 -7.67918,14.85 -8.56729,16.5 -0.88811,1.65 -5.94867,12 -11.24569,23 -5.29702,11 -10.12506,20.9 -10.72898,22 -0.60391,1.1 -5.27384,10.37722 -10.3776,20.61605 -10.46571,20.99558 -13.59881,24.57885 -17.60449,20.13395 z m 153.33968,-39.88486 c -4.12737,-5.2471 -1.64404,-18.68164 3.70123,-20.02322 7.77076,-1.95034 14.12836,10.14523 9.76624,18.58064 -2.4866,4.80855 -10.17222,5.63181 -13.46747,1.44258 z M 811.5,784.84801 c -1.1,-0.60015 -3.35863,-2.49897 -5.01917,-4.21959 -2.55693,-2.64946 -18.22377,-16.37051 -26.40574,-23.12622 -1.33369,-1.10121 -4.7472,-4.0272 -7.58556,-6.5022 -2.83835,-2.475 -8.27215,-7.18094 -12.07509,-10.45764 C 756.6115,737.26566 750.125,731.31823 746,727.32585 c -4.125,-3.99239 -8.48177,-8.06145 -9.68171,-9.04237 -8.39521,-6.86284 -13.13827,-10.97682 -22.81829,-19.79185 -6.05,-5.50938 -13.475,-12.00622 -16.5,-14.43741 -3.025,-2.4312 -5.95,-4.90743 -6.5,-5.50275 -0.55,-0.59532 -3.025,-2.6393 -5.5,-4.54219 -4.62661,-3.55714 -18.64495,-15.75633 -27.5,-23.93133 -2.75,-2.53881 -7.925,-6.9703 -11.5,-9.84776 -3.575,-2.87745 -7.4,-6.05536 -8.5,-7.06202 -1.1,-1.00666 -4.23157,-3.59382 -6.95905,-5.74923 -2.72748,-2.15542 -5.73273,-4.59394 -6.67833,-5.41894 -0.9456,-0.825 -2.31402,-1.95816 -3.04094,-2.51813 -0.72693,-0.55998 -5.14668,-4.3964 -9.82168,-8.5254 -7.41844,-6.55202 -14.84348,-12.67275 -26.63531,-21.95647 -1.74647,-1.375 -9.40549,-7.18438 -17.02005,-12.90972 -19.4889,-14.65363 -23.41541,-19.14374 -21.39282,-24.46357 1.10514,-2.90672 5.5562,-4.24994 8.03249,-2.42399 0.96763,0.7135 5.97951,4.78403 11.13751,9.0456 14.09054,11.64171 19.55955,15.9627 23.85574,18.84805 2.142,1.43858 7.01623,5.26791 10.83163,8.50962 3.81541,3.2417 10.70668,8.90992 15.31395,12.59603 13.52965,10.82457 29.07069,23.71485 33.37686,27.68393 2.2,2.02779 6.7,5.95389 10,8.72468 3.3,2.77078 7.575,6.45368 9.5,8.18421 9.96067,8.95441 24.32691,21.33648 30.40883,26.20897 3.77324,3.0229 12.84077,10.89619 20.15006,17.49619 7.30929,6.6 14.7862,13.29531 16.61536,14.87846 1.82916,1.58315 7.15075,6.33765 11.82575,10.56555 4.675,4.22791 9.85,8.69988 11.5,9.93772 3.52876,2.6473 16.54673,14.2281 21.16326,18.82686 1.77154,1.76473 10.33453,9.37831 19.02886,16.91906 22.76009,19.74024 24.88859,22.16806 20.80788,23.73398 -0.825,0.31658 -1.5,1.21658 -1.5,2 0,0.78341 -0.7118,1.69754 -1.58179,2.03138 -2.08107,0.79858 -2.55102,0.74651 -4.91821,-0.545 z M 209,749.69823 c -4.85907,-4.0109 -4.09291,-8.23899 2.5,-13.79641 5.34706,-4.50725 19.87167,-17.25155 20.5,-17.98728 0.275,-0.32201 1.23911,-0.99701 2.14247,-1.5 0.90336,-0.503 5.05273,-3.98666 9.22084,-7.74147 4.1681,-3.75482 11.52899,-10.00449 16.35753,-13.88817 4.82854,-3.88368 9.00416,-7.38078 9.27916,-7.77134 0.47295,-0.6717 18.43566,-16.08377 27.85511,-23.8998 6.70409,-5.56288 19.41355,-16.38536 21.64489,-18.43126 1.1,-1.00858 5.9375,-5.02397 10.75,-8.9231 4.8125,-3.89912 8.75,-7.46508 8.75,-7.92436 0,-0.45927 0.39343,-0.83504 0.8743,-0.83504 0.48086,0 2.16836,-1.11095 3.75,-2.46877 1.58163,-1.35782 6.4757,-5.50876 10.8757,-9.22432 4.4,-3.71555 8.225,-6.99829 8.5,-7.29497 0.275,-0.29669 2.975,-2.55645 6,-5.02168 3.025,-2.46524 5.95,-4.97229 6.5,-5.57123 0.55,-0.59894 3.22683,-2.85074 5.94851,-5.00401 5.33177,-4.21823 39.30101,-33.18574 48.91613,-41.71356 7.22915,-6.41167 11.70351,-8.26715 15.48497,-6.42152 2.23901,1.0928 2.62993,1.90097 2.5186,5.20677 -0.0955,2.83473 -0.81074,4.47817 -2.59533,5.96324 -10.28847,8.56167 -14.53308,12.1454 -23.76454,20.06443 -5.77959,4.95791 -12.99652,11.03291 -16.03764,13.5 -9.63547,7.81674 -16.09441,13.30895 -22.91544,19.48562 -3.64426,3.3 -8.85049,7.8 -11.56939,10 -7.66861,6.20504 -17.9318,14.81596 -18.48587,15.50982 -0.275,0.34439 -2.76749,2.40102 -5.53887,4.5703 -2.77138,2.16927 -9.57975,7.87618 -15.12972,12.68201 -5.54997,4.80583 -10.5206,8.73787 -11.04583,8.73787 -0.52524,0 -2.07969,1.2375 -3.45432,2.75 -3.80069,4.18187 -21.5598,19.59783 -34.84784,30.25 -6.63364,5.31777 -17.89046,14.86885 -23.51566,19.95235 -9.65438,8.72469 -18.6133,16.41159 -27.75784,23.81667 -9.07707,7.35045 -9.99959,8.12781 -14.45992,12.18456 -2.54066,2.31078 -5.0415,2.56764 -7.25,0.74465 z m 273.3518,-13.76379 c -3.59748,-1.3308 -3.5993,-1.39824 -0.79443,-29.43444 0.2201,-2.2 0.62586,-7.825 0.90169,-12.5 1.17611,-19.93368 1.57389,-25.61273 1.92621,-27.5 0.20534,-1.1 0.94888,-10.52498 1.65229,-20.94441 1.20605,-17.86471 1.415,-19.07051 3.6663,-21.15694 2.82118,-2.61459 7.01224,-2.50739 9.01428,0.23056 0.92605,1.26645 1.19001,3.47156 0.82213,6.86807 -0.29802,2.7515 -0.75322,8.51172 -1.01157,12.8005 -0.25835,4.28877 -0.73737,8.23084 -1.0645,8.76014 -0.32712,0.5293 -0.77654,4.6703 -0.99869,9.20222 -0.42105,8.58919 -0.98725,18.33011 -1.90305,32.73986 -0.29712,4.675 -0.78822,12.55 -1.09135,17.5 -0.70917,11.58059 -2.34933,21.17008 -3.81618,22.31203 -1.86725,1.45364 -5.07501,1.94664 -7.30313,1.12241 z m 157.47498,-25.85141 c -3.53274,-2.78499 -4.32268,-6.80317 -2.32096,-11.80596 2.38399,-5.95818 5.10716,-6.76781 11.65797,-3.46606 5.02845,2.53445 5.35362,2.92798 5.63804,6.82326 0.40275,5.51588 -2.71321,9.27706 -8.30339,10.02278 -3.10028,0.41357 -4.59892,0.06 -6.67166,-1.57402 z M 778.5,671.60118 c -9.34723,-2.95614 -15.01669,-7.12419 -16.04233,-11.79392 -0.96661,-4.40093 1.87511,-7.15049 6.51092,-6.29978 3.79289,0.69602 14.78465,5.68585 19.28141,8.75299 3.49815,2.38602 3.75858,6.91968 0.52749,9.18283 -2.6236,1.83764 -4.85761,1.87196 -10.27749,0.15788 z M 433,652.19184 c -2.26776,-0.78056 -3.93268,-3.39523 -3.9682,-6.23182 -0.0175,-1.39699 4.52088,-11.74699 10.08527,-23 C 460.08263,580.56084 466,568.29431 466,567.23254 c 0,-1.50198 4.01502,-2.01521 6.74693,-0.86244 1.33049,0.56143 2.63343,2.34793 3.19456,4.38016 1.04147,3.77189 1.94958,1.55547 -11.5745,28.24974 -3.76171,7.425 -9.23225,18.45 -12.15675,24.5 C 438.38739,652.09578 437.3261,653.6809 433,652.19184 Z M 202,621 c -1.1,-1.1 -2,-2.62838 -2,-3.39641 0,-2.17531 6.48605,-7.33671 10.17572,-8.09752 6.4855,-1.33731 23.60391,-6.51046 26.44265,-7.99092 4.28089,-2.23257 8.10583,-1.88186 10.99591,1.00822 4.25311,4.25311 3.11293,5.80277 -7.61428,10.34885 -2.475,1.04888 -7.2,2.67881 -10.5,3.62207 -3.3,0.94326 -8.93614,2.79292 -12.52476,4.11036 C 208.9702,623.54344 204.6573,623.6573 202,621 Z m 574,-31.52164 c -15.55643,-4.20011 -19.47901,-5.32196 -22.08058,-6.315 -1.41932,-0.54177 -5.69432,-1.73084 -9.5,-2.64238 -3.80568,-0.91154 -8.04442,-2.06489 -9.41942,-2.563 -1.375,-0.49811 -3.625,-1.1121 -5,-1.36442 -3.29298,-0.60429 -13.03771,-2.97899 -32,-7.79812 -8.525,-2.16657 -16.175,-4.09817 -17,-4.29244 -6.14536,-1.44717 -25.12965,-6.27562 -40,-10.17357 -3.025,-0.79294 -7.525,-2.06788 -10,-2.83319 -2.475,-0.76531 -8.9602,-2.31093 -14.41155,-3.4347 C 604.7262,545.61619 602,544.10077 602,539.9522 c 0,-5.04141 5.29595,-6.18889 17.99453,-3.8989 3.57801,0.64523 7.40547,1.58158 8.50547,2.08076 1.85157,0.84026 4.83423,1.6532 8.5,2.31674 0.825,0.14933 2.175,0.50994 3,0.80134 0.825,0.29141 4.2,1.08954 7.5,1.77362 3.3,0.68408 7.8,1.81397 10,2.51086 2.2,0.6969 5.43722,1.49301 7.19383,1.76914 1.75661,0.27613 4.68161,0.96575 6.5,1.53247 1.81839,0.56673 5.91044,1.54535 9.09343,2.17472 3.18299,0.62937 7.00799,1.78116 8.5,2.55952 1.49201,0.77837 3.49461,1.41798 4.45024,1.42137 0.95562,0.003 6.13062,1.17116 11.5,2.59505 5.36937,1.42389 12.6875,3.22154 16.2625,3.99477 3.575,0.77324 7.175,1.67369 8,2.00101 1.86062,0.7382 12.47477,3.71827 25,7.0191 13.5312,3.56594 12.01504,3.18971 23.53792,5.84082 9.07303,2.08747 13.63984,4.78792 13.20952,7.81106 -0.98258,6.90297 -4.24492,8.0583 -14.74744,5.22271 z M 320.31235,581.75 c -2.84676,-3.14554 -3.3913,-6.31679 -1.75652,-10.22937 1.49389,-3.57539 6.17022,-7.52063 8.91428,-7.52063 4.74547,0 8.52989,5.26975 8.52989,11.87776 0,3.10543 -0.57748,4.43132 -2.63486,6.04966 -3.70456,2.91401 -10.33659,2.82386 -13.05279,-0.17742 z M 149.04886,532.97197 c -6.06053,-1.40777 -7.74202,-5.98826 -3.79886,-10.34834 2.24236,-2.47945 2.3298,-2.48995 25.75,-3.09297 12.925,-0.33279 24.85,-0.77598 26.5,-0.98486 1.65,-0.20889 10.425,-0.66197 19.5,-1.00687 22.57313,-0.85788 36.11444,-1.45416 45,-1.98154 4.125,-0.24482 14.25,-0.70853 22.5,-1.03046 8.25,-0.32193 18.15,-0.8063 22,-1.07638 3.85,-0.27009 12.175,-0.69784 18.5,-0.95057 6.325,-0.25272 16.9,-0.6833 23.5,-0.95684 6.6,-0.27353 18.525,-0.75144 26.5,-1.06202 7.975,-0.31058 18.90819,-0.7502 24.29599,-0.97692 8.70957,-0.36651 10.01269,-0.19552 11.75,1.54179 2.92397,2.92397 2.54095,7.17608 -0.82554,9.16471 -2.22808,1.31616 -6.94013,1.76965 -23.75,2.28569 -32.33659,0.9927 -39.31321,1.29496 -40.17443,1.74054 -0.43781,0.22652 -9.12102,0.4705 -19.29602,0.54218 -10.175,0.0717 -20.525,0.3923 -23,0.71249 -2.475,0.32019 -8.775,0.78154 -14,1.02522 -5.225,0.24368 -11.75,0.6603 -14.5,0.92582 -7.1072,0.68622 -28.23842,1.76432 -40,2.04077 -5.5,0.12928 -14.05,0.5649 -19,0.96806 -10.61433,0.86448 -19.79313,1.29143 -43.484,2.02265 -9.6162,0.2968 -18.1662,0.71061 -19,0.91957 -0.8338,0.20896 -3.06902,0.0192 -4.96714,-0.42172 z M 639.25,502.48919 c -1.57237,-1.11995 -2.25,-2.6191 -2.25,-4.9778 0,-5.34575 3.89726,-7.48812 14.7177,-8.09049 8.39788,-0.46751 23.99068,-2.03462 29.2823,-2.94295 14.37876,-2.46816 20.25584,-1.2671 19.26114,3.9363 -0.75325,3.94039 -4.70023,7.58575 -8.21339,7.58575 -3.75637,0 -3.3622,-0.057 -7.18274,1.03871 -1.74459,0.50035 -10.86541,1.6044 -20.2685,2.45345 -9.40308,0.84905 -18.44651,1.78131 -20.09651,2.07168 -1.89026,0.33265 -3.8323,-0.0649 -5.25,-1.07465 z m 115.86762,-15.37157 c -3.33246,-3.33246 -2.09996,-9.75784 1.88238,-9.81345 0.825,-0.0115 3.525,-0.28951 6,-0.61775 2.475,-0.32825 8.55,-0.87279 13.5,-1.2101 4.95,-0.33731 9.675,-0.79104 10.5,-1.00829 0.825,-0.21725 4.2,-0.65692 7.5,-0.97704 3.3,-0.32013 8.475,-0.96227 11.5,-1.42699 3.025,-0.46472 6.4,-0.82809 7.5,-0.80751 1.1,0.0206 6.725,-0.6677 12.5,-1.52953 5.775,-0.86183 14.30973,-1.8615 18.96607,-2.22149 4.65634,-0.35998 8.78949,-0.8544 9.18477,-1.0987 0.39529,-0.24429 4.80439,-0.72477 9.79801,-1.06772 7.88606,-0.54159 9.34031,-0.38734 11.06523,1.17369 2.64918,2.39748 2.50339,4.65249 -0.48212,7.45724 -2.36845,2.22504 -6.60144,3.34437 -17.53196,4.63599 -2.475,0.29246 -5.85,0.69249 -7.5,0.88895 -1.65,0.19646 -6.15,0.6283 -10,0.95965 -3.85,0.33134 -10.375,1.0389 -14.5,1.57235 -4.125,0.53345 -9.975,1.21243 -13,1.50884 -3.025,0.29642 -6.85,0.72157 -8.5,0.94478 -1.65,0.22322 -6.375,0.67862 -10.5,1.01201 -4.125,0.33339 -8.625,0.88303 -10,1.22144 -1.375,0.3384 -4.525,0.70665 -7,0.81833 -2.475,0.11168 -7.70957,0.54053 -11.63238,0.95299 -6.48521,0.68188 -7.32452,0.55779 -9.25,-1.36769 z m -177.74554,-6.5275 c -2.78894,-2.00857 -3.57971,-6.23964 -1.54621,-8.27314 2.50179,-2.50179 38.10774,-19.2673 55.17413,-25.97944 3.575,-1.40603 8.36893,-3.389 10.65318,-4.40659 15.81061,-7.04336 22.12411,-7.7086 24.46199,-2.57752 2.09481,4.5976 -0.41727,6.84271 -12.61517,11.27452 -2.75,0.99914 -7.025,2.83971 -9.5,4.09015 -2.475,1.25044 -4.86537,2.27541 -5.31193,2.27771 -0.44655,0.002 -3.14655,1.06765 -6,2.36744 C 620.58885,464.87464 617.98545,466 617.33469,466 c -0.37791,0 -7.69532,3.42026 -16.2609,7.60057 -17.01999,8.30637 -20.46333,9.3218 -23.70171,6.98955 z M 352,473.10117 c -5.775,-2.01432 -16.575,-5.96616 -24,-8.78187 -7.425,-2.8157 -16.12938,-6.00028 -19.34308,-7.07683 -5.61975,-1.88257 -9.66103,-4.3872 -9.65318,-5.98268 0.002,-0.41789 0.89544,-2.22229 1.9853,-4.00979 1.53339,-2.51495 2.66646,-3.25 5.00983,-3.25 1.66555,0 3.80966,0.39715 4.7647,0.88255 1.68553,0.85668 4.51054,1.92513 20.23643,7.65368 4.125,1.50263 8.85,3.30368 10.5,4.00233 1.65,0.69865 6.375,2.24303 10.5,3.43197 9.50315,2.73906 16.14866,5.10678 17.75,6.32411 3.092,2.35054 -0.9575,10.80986 -5.06809,10.58714 -1.20005,-0.065 -6.90691,-1.76629 -12.68191,-3.78061 z M 432.96107,465.25 c -3.7879,-2.9808 -4.91097,-3.72107 -12.46107,-8.21368 -2.75,-1.63636 -5.675,-3.43884 -6.5,-4.00552 -0.825,-0.56668 -10.05,-6.6302 -20.5,-13.4745 -10.45,-6.84429 -19.54351,-12.9194 -20.20779,-13.50024 C 372.62792,425.47523 371.86135,425 371.58872,425 c -0.27263,0 -5.00172,-2.7221 -10.50908,-6.04911 -13.84773,-8.36544 -17.52707,-14.1168 -11.14299,-17.41813 3.47904,-1.79908 4.48477,-1.48552 13.32358,4.15396 3.71812,2.37231 6.92388,4.31328 7.12391,4.31328 0.20003,0 4.67407,2.8125 9.94232,6.25 24.16073,15.76473 38.98576,25.2568 48.67354,31.16437 14.80396,9.02741 16,10.08178 16,14.10498 0,2.34599 -0.67406,3.83937 -2.22251,4.92395 -3.21039,2.24864 -5.85031,1.92773 -9.81642,-1.1933 z m 65.48006,-18.67012 c -1.84836,-1.35226 -1.9359,-2.79793 -1.83177,-30.25 0.14728,-38.82991 1.42511,-134.9995 1.91773,-144.32988 0.2178,-4.125 0.61992,-17.175 0.8936,-29 0.62538,-27.02011 1.44452,-53.40102 2.08038,-67 0.27003,-5.775 0.71343,-16.8 0.98532,-24.5 0.2719,-7.7 0.70248,-16.475 0.95685,-19.5 0.25437,-3.025 0.55025,-7.975 0.65752,-11 0.23357,-6.58657 1.97199,-9 6.4828,-9 5.80369,0 6.57207,1.79115 5.9467,13.86212 -0.30312,5.85084 -0.78818,15.36288 -1.07793,21.13788 -0.28974,5.775 -0.73578,13.875 -0.9912,18 -0.25541,4.125 -0.67707,15.15 -0.93701,24.5 -0.25995,9.35 -0.68521,19.025 -0.94503,21.5 -0.25982,2.475 -0.74973,18.9 -1.0887,36.5 -0.33897,17.6 -0.76884,37.85 -0.95527,45 -0.18642,7.15 -0.62583,43.375 -0.97646,80.5 -0.35062,37.125 -0.857,68.91905 -1.12528,70.65345 -0.68395,4.42168 -5.87169,5.94102 -9.99225,2.92643 z m -272.16984,-0.67523 c -4.50126,-1.66512 -5.68877,-9.06773 -2.33655,-14.56536 3.74434,-6.14072 9.7486,-5.6906 12.97421,0.97264 2.54923,5.26599 2.63057,7.80054 0.34105,10.62664 -2.04208,2.52066 -7.90264,4.10399 -10.97871,2.96608 z M 546.5,432.80505 c -4.6029,-2.61013 -4.69141,-6.99785 -0.25,-12.39281 1.7875,-2.17127 3.7,-4.68994 4.25,-5.59704 1.32864,-2.19129 12.9852,-19.6452 15.23062,-22.80551 0.97316,-1.36967 5.3002,-7.44467 9.61566,-13.5 4.31545,-6.05533 9.94045,-14.22633 12.5,-18.15779 5.43198,-8.3435 7.11889,-9.69584 10.49394,-8.41265 5.71657,2.17344 4.08157,9.44991 -4.86902,21.6693 C 586.60862,382.97737 569,408.84723 569,409.56063 c 0,0.39503 -2.07237,3.40505 -11.5,16.70319 -2.2,3.10321 -5.03367,6.11335 -6.29705,6.68919 -2.71487,1.23743 -2.23314,1.25258 -4.70295,-0.14796 z m 41.29607,-3.57313 c -1.19093,-2.01609 -1.36184,-3.25647 -0.62909,-4.56581 1.76555,-3.15486 24.69968,-25.67392 70.44097,-69.16611 8.67664,-8.25 20.30188,-19.34905 25.83387,-24.66455 5.532,-5.3155 12.96675,-12.2905 16.52166,-15.5 3.55492,-3.2095 10.97992,-10.18231 16.5,-15.49514 5.52009,-5.31284 12.67937,-12.06284 15.90951,-15 3.23015,-2.93717 12.48688,-11.74321 20.57052,-19.56898 21.20485,-20.52841 24.30307,-22.48519 28.86793,-18.23237 3.92339,3.65519 2.88147,6.08154 -6.04701,14.08172 -4.52956,4.05863 -13.86706,12.81206 -20.75,19.45207 -6.88294,6.64002 -15.21443,14.51228 -18.51443,17.49392 -3.3,2.98165 -10.275,9.51254 -15.5,14.5131 -5.225,5.00056 -12.875,12.17863 -17,15.95125 -4.125,3.77263 -16.5,15.50954 -27.5,26.08201 -11,10.57248 -21.125,20.15131 -22.5,21.28629 -3.58388,2.95828 -3.76373,3.1325 -11.73608,11.36793 -3.97984,4.11118 -9.15484,9.1876 -11.5,11.28093 -7.12913,6.3636 -27.92778,25.71344 -31.92573,29.70182 -4.71991,4.70862 -8.63505,5.05677 -11.04212,0.98192 z M 433.60443,418.16539 C 428.28953,411.19943 422.13785,403.25 419.93403,400.5 c -2.20383,-2.75 -6.12805,-7.67985 -8.72049,-10.95523 -2.59245,-3.27538 -5.79226,-7.10038 -7.11071,-8.5 -1.31844,-1.39962 -4.93069,-5.91977 -8.02723,-10.04477 -3.09654,-4.125 -7.52471,-9.525 -9.84037,-12 -2.31566,-2.475 -4.21591,-4.81997 -4.22276,-5.21104 -0.007,-0.39108 -0.83076,-1.51608 -1.83089,-2.5 -1.00013,-0.98393 -4.71263,-5.60531 -8.25,-10.26973 -6.84153,-9.02134 -8.11133,-10.5821 -15.19528,-18.67731 -2.48256,-2.83695 -5.93543,-7.22445 -7.67306,-9.75 -1.73763,-2.52556 -3.4752,-4.59499 -3.86128,-4.59875 -0.38608,-0.004 -1.81859,-1.69126 -3.18336,-3.75 -2.54466,-3.83861 -9.68599,-12.92796 -11.57566,-14.73329 -0.58139,-0.55543 -2.3576,-2.80988 -3.94714,-5.00988 -1.58954,-2.2 -3.13886,-4.225 -3.44294,-4.5 -0.30407,-0.275 -2.55033,-2.975 -4.99169,-6 -2.44136,-3.025 -5.02985,-6.175 -5.7522,-7 C 302.1962,255.45018 287,236.26855 287,235.05338 287,234.47402 286.60512,234 286.12248,234 c -0.80725,0 -5.03759,-4.87516 -12.62248,-14.54649 -1.65,-2.10387 -3.73577,-4.52909 -4.63505,-5.38937 -0.89928,-0.86028 -2.47428,-2.94801 -3.5,-4.63941 -1.02572,-1.6914 -3.98123,-5.5164 -6.5678,-8.5 -4.67012,-5.38697 -7.92688,-9.41698 -16.05961,-19.87262 -2.33065,-2.99633 -5.25004,-6.54954 -6.48754,-7.89602 -2.41267,-2.62513 -2.87787,-6.11438 -1.22657,-9.19987 1.70316,-3.18239 8.26736,-1.96193 11.70982,2.17716 1.52171,1.82965 4.79175,5.641 7.26675,8.46967 3.86325,4.41529 11.92641,14.3359 18.3285,22.55072 8.37177,10.7422 19.35214,24.39705 25.1715,31.3025 3.85,4.56854 9.025,10.8945 11.5,14.0577 2.475,3.16319 7.43648,9.17908 11.02551,13.36864 6.12663,7.15178 14.09956,17.06503 25.28395,31.43715 2.6452,3.39913 5.77963,7.30524 6.96539,8.68024 1.18576,1.375 5.3311,6.55 9.21188,11.5 3.88077,4.95 8.02351,10.125 9.20609,11.5 1.75534,2.04096 19.79248,24.25925 32.47258,40 1.55071,1.925 5.51875,6.77614 8.81787,10.7803 3.29913,4.00417 7.81422,9.62917 10.03354,12.5 2.21933,2.87084 5.85355,7.4697 8.07607,10.2197 5.50554,6.81223 14.50938,18.58665 19.69532,25.75581 5.59193,7.7304 4.84217,10.83369 -2.90425,12.02082 l -3.61606,0.55416 z m 303.69983,-13.12143 c -4.4858,-2.73517 -5.65616,-9.95679 -2.41969,-14.93051 1.38543,-2.12909 10.58951,-2.68806 13.44576,-0.81658 6.11419,4.00617 5.23347,12.78412 -1.60843,16.03081 -4.48364,2.12762 -5.51382,2.09659 -9.41764,-0.28372 z M 269.94299,361.84303 C 263.09935,357.90669 256.15,353.85464 254.5,352.83847 c -1.65,-1.01617 -4.575,-2.57201 -6.5,-3.45742 -1.925,-0.88541 -4.76234,-2.50668 -6.30519,-3.60284 -1.54285,-1.09615 -5.59285,-3.37598 -9,-5.0663 -3.40715,-1.69032 -8.55731,-4.80619 -11.44481,-6.92415 -5.88483,-4.31649 -6.84399,-7.55788 -3.02749,-10.23106 3.84178,-2.69089 7.943,-1.87345 16.88047,3.36456 10.93271,6.40736 29.17951,16.88895 34.93887,20.07008 C 289.84561,357.92981 291,358.86784 291,364.02137 291,365.9181 286.50752,369 283.74265,369 c -0.74616,0 -6.95601,-3.22064 -13.79966,-7.15697 z m 272.5653,-5.01554 c -3.1166,-3.70388 -3.13317,-5.6116 -0.1103,-12.70244 1.31889,-3.09378 4.98534,-13.72505 8.14765,-23.62505 12.01588,-37.61711 17.76715,-54.21279 19.32875,-55.77439 0.61909,-0.61909 1.13211,-2.04811 1.14006,-3.17561 0.008,-1.1275 2.29509,-8.575 5.08255,-16.55 2.78746,-7.975 5.65727,-16.75 6.37735,-19.5 1.92832,-7.36429 2.59587,-8.81964 4.92063,-10.72776 3.75381,-3.08106 8.76992,-1.41818 9.73662,3.22776 0.30086,1.44593 -3.26523,13.58654 -7.34332,25 -1.08085,3.025 -3.9305,11.575 -6.33256,19 -2.40206,7.425 -4.87466,14.85 -5.49468,16.5 C 574.47322,287.78188 564,319.34641 564,320.57623 c 0,0.798 -0.3975,2.2323 -0.88333,3.18734 -1.70461,3.35089 -2.95607,6.84903 -7.14349,19.9678 -2.32284,7.27725 -4.72957,13.62476 -5.34827,14.10557 -2.94715,2.29031 -5.61973,1.95793 -8.11662,-1.00945 z m -85.62992,-8.5767 c -2.77222,-0.37947 -3.86461,-2.0703 -7.91489,-12.25079 -1.20349,-3.025 -2.9797,-7.3 -3.94713,-9.5 -5.06883,-11.52674 -7.25513,-16.896 -10.58691,-26 -2.01283,-5.5 -4.01398,-10.45 -4.44699,-11 -2.38787,-3.03299 -0.73392,-9.09458 2.71792,-9.96093 4.09579,-1.02798 6.82199,1.65867 9.80627,9.66402 1.49611,4.0133 3.74287,9.54691 4.99281,12.29691 1.24995,2.75 3.26877,7.475 4.48628,10.5 1.21752,3.025 3.5188,8.30303 5.11397,11.72896 1.59516,3.42593 2.9003,6.69333 2.9003,7.2609 0,0.56756 0.93324,3.01732 2.07387,5.4439 3.50526,7.45713 1.20329,12.69292 -5.1955,11.81703 z m 181.47606,-44.9684 c -4.06333,-0.7464 -5.99454,-4.52914 -5.50995,-10.79261 0.20954,-2.70842 4.775,-7.48978 7.15158,-7.48978 2.00844,0 8.91806,4.26755 10.21677,6.31012 3.44753,5.42219 -4.39768,13.34274 -11.8584,11.97227 z m 26.533,-82.39496 c -1.66411,-1.66411 -1.98837,-2.87799 -1.52748,-5.71813 C 664.49718,208.16141 678.31179,191 682.81579,191 c 0.99552,0 2.98295,1.2375 4.41652,2.75 3.20283,3.37917 2.95558,4.05487 -6.23231,17.03232 -4.04016,5.70653 -7.6925,9.75554 -9.65113,10.69931 -3.98867,1.92194 -3.94091,1.92633 -6.46144,-0.5942 z M 404.4,214.6 c -3.26402,-3.26402 -4.23221,-6.82249 -3.42823,-12.6 0.75049,-5.39308 8.62785,-6.78108 13.39546,-2.3603 6.00612,5.56918 6.36268,12.06779 0.89799,16.36632 -3.7165,2.9234 -6.95486,2.50434 -10.86522,-1.40602 z"
         id="path1" />
   </g>
</svg>