<?xml version="1.0" encoding="utf-8"?>
<!-- Generator: Adobe Illustrator 27.0.0, SVG Export Plug-In . SVG Version: 6.00 Build 0)  -->
<svg version="1.1" id="svg1" xmlns:svg="http://www.w3.org/2000/svg"
	 xmlns="http://www.w3.org/2000/svg" xmlns:xlink="http://www.w3.org/1999/xlink" x="0px" y="0px" viewBox="0 0 1245.6 442.8"
	 style="enable-background:new 0 0 1245.6 442.8;" xml:space="preserve">
<g id="g1" transform="translate(-96.940886,-268.19135)">
	<path id="path1" d="M553,445.1c-5.1-1-8.7-3-9.6-5.2l-0.6-1.5l-205.6,0c-222.6,0-210.9,0.1-220.4-2.1c-5.7-1.4-13.3-4.7-15.7-6.9
		c-1-1-2.4-2.8-3-4.1c-1.5-3.3-1.5-141.9,0-144.8c3.2-6.2,14.9-10.9,30-12c3.6-0.3,202.6-0.4,595.4-0.3l590,0.1l5.7,0.9
		c8,1.3,15.9,4.3,20,7.6l3.3,2.7v73.5v73.5l-2.4,2.4c-3.2,3.2-12.6,7-20.7,8.3l-5.9,0.9l-208.1,0.1l-208.1,0.1l-0.6,1.5
		c-0.8,2.1-4.4,4.1-9.2,5.2l-4,0.9l-163,0l-163,0L553,445.1z M882.4,441.6c1.4-0.2,3-0.9,3.6-1.5c0.8-0.7,1-7.3,0.8-21.4
		c-0.3-19.8-0.3-20.4-2.3-21.1c-1.1-0.4-7-1.6-13-2.7c-24.2-4.2-87.6-15.3-119.1-20.9c-15.4-2.7-29.2-5.1-30.6-5.2
		c-1.9-0.2-16.7,2.2-63.4,10.4c-33.5,5.8-69.7,12.1-80.4,14s-20.6,3.8-22,4.2l-2.5,0.9l-0.3,20.7l-0.3,20.7l2.9,1.2l2.9,1.2h160.5
		C836.6,442,880.6,441.9,882.4,441.6L882.4,441.6z M654.8,430.9c-0.7-0.7-0.8-37.9-0.1-39.2c0.4-0.8,1-0.9,4.8-0.9
		c4.1,0,4.4,0.1,5,1c0.3,0.5,2.4,6.1,4.5,12.4c3.4,9.9,4.6,12.7,4.6,10.9c0-1.2,8.1-23.2,8.8-23.7c1-0.8,8.6-0.8,9.3,0.1
		c0.4,0.4,0.5,6.1,0.4,20.2l-0.1,19.6h-3.3h-3.3l-0.1-13.4c-0.1-7.3-0.3-13.4-0.5-13.4c-0.2,0-0.6,0.5-0.9,1.2
		c-0.6,1.2-7.5,20.4-7.5,20.7c0,0.1-1.4,0.2-3.1,0.2h-3.1l-0.9-2.3c-0.5-1.3-2.3-6.3-4.1-11.1l-3.3-8.8l-0.2,13.5
		c-0.1,7.4-0.3,13.5-0.3,13.6C661.1,431.7,655.3,431.3,654.8,430.9L654.8,430.9z M699.7,431.1c-0.2-0.2-0.3-0.6-0.3-1.1
		c0-1,12.7-38,13.3-38.7c0.7-0.8,8-0.8,8.7,0c1,1.2,13.3,38,13.1,39.1c-0.2,1-0.4,1-3.7,0.9l-3.4-0.1l-1.7-4.5l-1.7-4.5h-7
		c-5.1,0-7.1,0.2-7.3,0.5c-0.2,0.3-1.1,2.3-1.9,4.5l-1.6,4l-3.1,0.1C701.4,431.4,699.8,431.3,699.7,431.1L699.7,431.1z M721.4,414.4
		c0-0.6-4.3-13.5-4.6-13.9c-0.2-0.2-4.6,13.2-4.6,13.9c0,0.4,1.2,0.6,4.6,0.6C720.5,415.1,721.4,414.9,721.4,414.4z M741.4,430.9
		c-0.4-0.4-0.5-5.1-0.5-19.9c0-18.7,0-19.3,0.9-19.8c1.3-0.7,5.6-0.6,6.2,0.1c0.4,0.4,0.5,6.1,0.4,20.2l-0.1,19.6l-3.1,0.1
		C743,431.4,741.8,431.3,741.4,430.9z M758.3,430.9c-0.1-0.3-0.2-9.3-0.1-20l0.1-19.4h3.3h3.3l0.2,16.3l0.2,16.3l7.8,0.1
		c9,0.1,8.5-0.1,8.2,4.5l-0.1,2.4l-11.4,0.1C761,431.4,758.4,431.3,758.3,430.9L758.3,430.9z M543,416.8c0-9.5,0.3-17.8,0.6-18.5
		l0.6-1.2L395.9,397l-148.4-0.1l-6.2-1.2c-7.2-1.3-14.3-4.2-17.6-7c-2.1-1.8-2.2-2.4-2.5-19.6l-0.4-17.7l-4.1-1.2
		c-2.3-0.7-5.4-2.1-7.1-3.1c-2.8-1.8-3-2.2-3.9-8.4l-0.9-6.5l6.1-12.9c3.9-8.2,7-13.6,8.5-14.9c2.8-2.5,8.5-4.8,15.2-6.2l4.9-1H720
		h480.5l4.4,0.9c6.5,1.4,13.6,4.3,16,6.4c2.6,2.4,12.8,24.3,13.7,29.2c0.3,2,0.2,5.5-0.4,7.8c-0.9,3.7-1.4,4.4-4.3,6.1
		c-1.8,1.1-5,2.3-7,2.9l-3.7,0.9l-0.3,18.3l-0.3,18.3l-2.5,1.9c-3.1,2.4-8.7,4.5-15.9,5.8l-5.6,1.1l-149.4,0.1l-149.4,0.1l0.6,0.9
		c0.3,0.5,0.6,8.8,0.6,18.5l0,17.6h206.3c228.7,0,211.2,0.2,219.5-2.6c2.2-0.8,5.2-2.3,6.6-3.5l2.6-2.1l0-72.5
		c0-72.1,0-72.5-2.1-74.3c-2.5-2.2-7.1-4.2-12.4-5.4l-4-0.9H720H126.5l-4.7,1.1c-2.6,0.6-6.1,1.8-7.8,2.6c-6.4,3.1-6.1-1.6-5.8,77.6
		l0.3,72.1l2.2,1.6c3.1,2.3,8.1,4.2,13.8,5.3l5,0.9l206.8,0l206.8,0V416.8z M1305.6,311c-4.1-1.4-7.5-4.5-9-8.5
		c-1.2-3.2-1-8.7,0.4-11.7c1.3-2.8,4-5.3,6.7-6.6c3.2-1.5,8-1.3,10.9,0.4c9.7,5.7,9.5,20.4-0.3,25.2
		C1311.9,311.1,1307.6,311.7,1305.6,311L1305.6,311z M1311.9,306.2c1.7-0.6,3.9-2.9,4.9-4.9c1.2-2.5,1.1-5.9-0.3-8.7
		c-2.8-5.6-9.2-6.8-13.6-2.4c-4.6,4.6-3.2,13.3,2.6,15.8C1307,306.8,1310.2,306.9,1311.9,306.2L1311.9,306.2z M1303.5,298.6
		c-0.6-1.2-0.5-1.9,0.3-2.7c0.6-0.6,1.7-0.7,5.1-0.7c4.2,0,4.3,0,5,1.1c0.6,0.9,0.6,1.3,0.2,2.1c-0.5,1-0.6,1-5.4,1
		C1304.4,299.5,1303.9,299.4,1303.5,298.6L1303.5,298.6z M576.4,388.8c12.2-2.1,25.9-4.5,30.6-5.3l8.5-1.5L440,381.8
		c-173.2-0.2-175.5-0.2-178.9-1c-1.9-0.4-4.8-1.5-6.5-2.3l-3.1-1.5l-0.3-12.2l-0.3-12.2h-10h-10l0.3,16.6
		c0.3,18.4,0.2,18.1,7.1,20.9c7,2.8-4.3,2.6,164.1,2.7l151.9,0L576.4,388.8z M1196,391.8c5.3-1,8.5-2.1,10.8-3.8
		c1.4-1.1,1.7-3.4,2.2-18.4l0.5-17.2l-8.8,0l-8.8,0V364c0,11.2-0.1,11.6-2.2,13.3c-1.3,1-4.1,2.3-6.6,3l-4.3,1.2l-177.4,0.2
		L824.1,382l29.7,5.3l29.7,5.3l154,0C1190.4,392.6,1191.5,392.6,1196,391.8L1196,391.8z M679.5,370.9c34.7-6.1,37.3-6.5,42-6.3
		c3.7,0.1,14.5,1.9,40.4,6.5l35.4,6.3l189.6,0l189.6,0l2.8-1.2l2.8-1.2v-11.2v-11.2H721.5H261v11.4c0,10.6,0.1,11.5,1.9,12.4
		c1.9,0.9,2,0.9,28.8,1.1c14.8,0.1,99.7,0.2,188.8,0.1l162-0.1L679.5,370.9z M1215.5,347.2c5.1-1,8.5-3.2,8.5-5.6
		c0-0.9-0.2-1.7-0.4-1.7c-0.2,0-2,0.3-4,0.6c-3.2,0.5-60.9,0.6-499.4,0.6c-487.6,0-495.9,0-500-0.8l-4.2-0.8v1.6
		c0,2.9,3.5,5.2,9.5,6.3c2.5,0.4,87.1,0.5,494.4,0.6C1209.4,348,1211.4,348,1215.5,347.2L1215.5,347.2z M1216.5,336.6
		c3.8-0.6,7.5-2.7,7.5-4.2c0-1.6-11-24.6-12.4-25.9c-1.5-1.4-8.5-4.1-12.2-4.7c-1.6-0.2-180.6-0.4-479.4-0.4
		c-402.4,0-477.5,0.1-480.2,0.5c-3.8,0.6-9.2,2.7-11.2,4.2c-1.4,1.1-12.5,24.1-12.5,25.9c0,1.8,2.8,3.4,7.3,4.2
		c4.1,0.7,15,0.8,497,0.8C1146.9,337.2,1213.5,337.1,1216.5,336.6z M1305.6,421.6c-4.1-1.4-7.5-4.5-9-8.5c-1.2-3.2-1-8.7,0.4-11.7
		c1.3-2.8,4-5.3,6.7-6.6c3.2-1.5,8-1.3,10.9,0.4c9.7,5.7,9.5,20.4-0.3,25.2C1311.9,421.7,1307.6,422.2,1305.6,421.6L1305.6,421.6z
		 M1311.9,416.8c1.7-0.6,3.9-2.9,4.9-4.9c1.2-2.5,1.1-5.9-0.3-8.7c-2.8-5.6-9.2-6.8-13.6-2.4c-4.6,4.6-3.2,13.3,2.6,15.8
		C1307,417.3,1310.2,417.4,1311.9,416.8L1311.9,416.8z M1303.5,409.2c-0.6-1.2-0.5-1.9,0.3-2.7c0.6-0.6,1.7-0.7,5.1-0.7
		c4.2,0,4.3,0,5,1.1c0.6,0.9,0.6,1.3,0.2,2.1c-0.5,1-0.6,1-5.4,1C1304.4,410,1303.9,409.9,1303.5,409.2L1303.5,409.2z M122.7,421.6
		c-4.1-1.4-7.5-4.5-9-8.5c-1.2-3.2-1-8.7,0.4-11.7c1.3-2.8,4-5.3,6.7-6.6c3.2-1.5,8-1.3,10.9,0.4c9.7,5.7,9.5,20.4-0.3,25.2
		C129,421.7,124.7,422.3,122.7,421.6L122.7,421.6z M129,416.8c1.7-0.6,3.9-2.9,4.9-4.9c1.2-2.5,1.1-5.9-0.3-8.7
		c-2.8-5.6-9.2-6.8-13.6-2.4c-4.6,4.6-3.2,13.3,2.6,15.8C124.1,417.4,127.3,417.5,129,416.8L129,416.8z M120.6,409.2
		c-0.6-1.2-0.5-1.9,0.3-2.7c0.6-0.6,1.7-0.7,5.1-0.7c4.2,0,4.3,0,5,1.1c0.6,0.9,0.6,1.3,0.2,2.1c-0.5,1-0.6,1-5.4,1
		C121.5,410.1,121,410,120.6,409.2L120.6,409.2z M122.7,311c-4.1-1.4-7.5-4.5-9-8.5c-1.2-3.2-1-8.7,0.4-11.7c1.3-2.8,4-5.3,6.7-6.6
		c3.2-1.5,8-1.3,10.9,0.4c9.7,5.7,9.5,20.4-0.3,25.2C128.9,311.1,124.6,311.7,122.7,311L122.7,311z M128.9,306.2
		c1.7-0.6,3.9-2.9,4.9-4.9c1.2-2.5,1.1-5.9-0.3-8.7c-2.8-5.6-9.2-6.8-13.6-2.4c-4.6,4.6-3.2,13.3,2.6,15.8
		C124,306.8,127.3,306.9,128.9,306.2L128.9,306.2z M120.6,298.6c-0.6-1.2-0.5-1.9,0.3-2.7c0.6-0.6,1.7-0.7,5.1-0.7
		c4.2,0,4.3,0,5,1.1c0.6,0.9,0.6,1.3,0.2,2.1c-0.5,1-0.6,1-5.4,1C121.5,299.5,121,299.4,120.6,298.6L120.6,298.6z"/>
</g>
</svg>
