<svg xmlns="http://www.w3.org/2000/svg" viewBox="0 0 450 300" width="450" height="300" preserveAspectRatio="xMidYMid meet">
  <g transform="rotate(90) translate(0, -450)">
    <!-- 背景 -->
    <rect x="0" y="0" width="300" height="450" fill="#002244" rx="18" ry="18" />

    <!-- 外层边框 -->
    <rect x="6" y="6" width="288" height="438" fill="none" stroke="white" stroke-width="3" rx="12" ry="12" />

    <!-- 内层边框 -->
    <rect x="24" y="24" width="252" height="402" fill="none" stroke="white" stroke-width="2.5" rx="10" ry="10" />

    <!-- 圆环链边框装饰 -->
    <defs>
      <pattern id="circleChain" width="10" height="10" patternUnits="userSpaceOnUse">
        <circle cx="5" cy="5" r="2.5" stroke="white" stroke-width="1" fill="none"/>
      </pattern>
    </defs>
    <rect x="24" y="6" width="252" height="18" fill="url(#circleChain)" />
    <rect x="24" y="426" width="252" height="18" fill="url(#circleChain)" />
    <rect x="6" y="24" width="18" height="402" fill="url(#circleChain)" />
    <rect x="276" y="24" width="18" height="402" fill="url(#circleChain)" />

    <!-- 背景格子图案 -->
    <defs>
      <pattern id="diamondGrid" width="20" height="20" patternUnits="userSpaceOnUse" patternTransform="rotate(45)">
        <path d="M0,0 L0,20 M0,0 L20,0" stroke="white" stroke-width="0.5" />
      </pattern>
    </defs>
    <rect x="30" y="30" width="240" height="390" fill="url(#diamondGrid)" rx="6" ry="6" />

    <!-- 四角星图案 -->
    <g fill="none" stroke="white" stroke-width="1.2">
      <defs>
        <path id="starShape" d="
          M0,-6 L0,-2 
          M0,2 L0,6 
          M-6,0 L-2,0 
          M2,0 L6,0
          M-4,-4 L-2,-2 
          M2,2 L4,4 
          M-4,4 L-2,2 
          M2,-2 L4,-4
        "/>
      </defs>
      <g transform="translate(16,16) rotate(-45)">
        <use href="#starShape" />
      </g>
      <g transform="translate(284,16) rotate(45)">
        <use href="#starShape" />
      </g>
      <g transform="translate(16,434) rotate(45)">
        <use href="#starShape" />
      </g>
      <g transform="translate(284,434) rotate(-45)">
        <use href="#starShape" />
      </g>
    </g>
  </g>
</svg>
